<?xml version="1.0" standalone="no"?>
<!DOCTYPE svg PUBLIC "-//W3C//DTD SVG 20010904//EN"
 "http://www.w3.org/TR/2001/REC-SVG-20010904/DTD/svg10.dtd">
<svg version="1.0" xmlns="http://www.w3.org/2000/svg"
 width="300.000000pt" height="300.000000pt" viewBox="0 0 300.000000 300.000000"
 preserveAspectRatio="xMidYMid meet">
<metadata>
Created by potrace 1.10, written by Peter Selinger 2001-2011
</metadata>
<g transform="translate(0.000000,300.000000) scale(0.100000,-0.100000)"
fill="#000000" stroke="none">
<path d="M1308 2610 c3 -23 0 -30 -12 -30 -9 0 -16 -8 -16 -20 0 -13 7 -20 19
-20 15 0 20 -10 25 -60 8 -73 24 -90 81 -90 47 0 59 8 49 35 -5 11 -14 15 -30
11 -29 -8 -44 17 -44 73 0 37 2 41 25 41 20 0 25 5 25 26 0 23 -3 25 -30 19
-27 -6 -30 -4 -30 19 0 23 -4 26 -33 26 -32 0 -33 -2 -29 -30z"/>
<path d="M1524 2566 c-58 -58 -42 -141 32 -172 40 -17 73 -18 110 -4 25 10 26
12 11 28 -12 13 -27 17 -51 14 -39 -5 -76 12 -76 34 0 13 9 15 53 9 28 -3 64
-8 80 -11 25 -5 27 -3 27 25 0 45 -19 78 -55 96 -54 25 -92 20 -131 -19z m124
-34 c6 -9 12 -20 12 -24 0 -8 -100 0 -110 9 -3 3 6 13 19 24 26 21 58 18 79
-9z"/>
<path d="M1136 2550 c-38 -12 -76 -49 -76 -75 0 -41 24 -60 73 -57 25 1 51 3
58 4 7 2 14 -4 16 -14 5 -20 -56 -43 -87 -33 -16 5 -20 2 -20 -19 0 -23 4 -26
35 -26 95 0 167 77 118 126 -14 13 -28 15 -74 10 -39 -4 -60 -2 -65 6 -10 16
25 38 62 38 26 0 33 5 36 25 5 22 2 25 -21 24 -14 0 -39 -5 -55 -9z"/>
<path d="M882 2538 c-15 -15 -16 -44 -1 -53 5 -4 21 -4 35 -1 20 5 25 12 22
34 -3 30 -35 41 -56 20z"/>
<path d="M938 2456 c-24 -18 -24 -19 18 -90 69 -115 62 -108 87 -95 12 7 23
13 25 14 5 4 -100 185 -107 185 -3 0 -14 -7 -23 -14z"/>
<path d="M1850 2355 c-20 -24 -3 -55 30 -55 20 0 31 6 35 20 8 25 -10 50 -35
50 -10 0 -23 -7 -30 -15z"/>
<path d="M781 2344 c-20 -9 -37 -25 -44 -44 -6 -16 -14 -30 -18 -30 -4 0 -20
15 -36 33 -29 34 -30 34 -52 15 l-23 -18 70 -77 c39 -43 84 -91 101 -107 30
-29 31 -29 51 -11 19 17 19 18 -27 72 -41 48 -45 57 -37 81 16 46 49 41 108
-17 l52 -51 22 23 22 23 -53 51 c-65 64 -92 76 -136 57z"/>
<path d="M2130 2299 c-69 -26 -129 -50 -135 -52 -5 -3 0 -14 13 -27 21 -20 26
-21 53 -9 29 12 32 10 76 -34 45 -44 46 -46 33 -76 -11 -28 -10 -34 5 -51 10
-11 21 -20 25 -20 7 0 110 259 110 277 0 13 -34 43 -46 42 -5 -1 -65 -23 -134
-50z m98 -65 c-12 -27 -24 -51 -25 -53 -1 -2 -16 11 -34 28 -17 18 -30 33 -28
35 9 6 104 43 107 41 2 -2 -7 -25 -20 -51z"/>
<path d="M594 2106 c-39 -17 -64 -52 -64 -89 0 -15 -4 -26 -9 -23 -5 3 -16 -5
-25 -19 -18 -28 -20 -35 -7 -35 5 0 62 -29 127 -65 109 -60 120 -64 131 -48
21 27 15 39 -27 58 -40 18 -53 35 -26 35 22 0 46 46 46 91 0 33 -6 47 -31 70
-17 16 -37 29 -44 29 -7 0 -19 2 -27 5 -7 2 -27 -2 -44 -9z m70 -67 c14 -11
26 -30 26 -41 0 -29 -28 -58 -57 -58 -28 0 -63 33 -63 60 0 23 33 60 54 60 7
0 25 -9 40 -21z"/>
<path d="M2310 2049 c-47 -27 -89 -50 -94 -52 -5 -2 -1 -15 8 -29 l17 -26 52
29 c62 34 80 36 106 8 16 -17 23 -19 40 -10 29 16 26 28 -10 50 -17 10 -25 21
-18 23 9 3 9 10 -2 30 l-14 26 -85 -49z"/>
<path d="M2457 1912 c-13 -3 -17 -10 -14 -22 4 -15 -4 -20 -42 -30 -72 -18
-91 -34 -91 -78 0 -21 6 -47 14 -57 12 -16 16 -17 30 -6 10 9 14 22 10 37 -5
20 -1 26 27 38 70 28 77 29 81 4 2 -15 10 -23 23 -23 16 0 20 7 20 30 0 23 5
31 23 33 26 4 25 3 12 37 -8 22 -15 26 -35 21 -15 -4 -27 -1 -32 7 -4 7 -16
11 -26 9z"/>
<path d="M462 1803 c-23 -9 -42 -61 -42 -113 0 -48 2 -51 23 -48 19 3 22 8 19
40 -3 27 2 42 17 57 33 33 39 25 34 -42 -4 -51 -2 -66 11 -80 46 -46 112 6
103 80 -2 24 -1 40 3 38 7 -5 25 44 18 50 -2 1 -27 8 -56 14 -55 11 -108 13
-130 4z m123 -77 c13 -19 14 -29 5 -45 -12 -23 -35 -28 -45 -10 -9 14 4 79 15
79 5 0 17 -11 25 -24z"/>
<path d="M2584 1696 c-11 -28 1 -51 27 -54 31 -4 44 19 29 49 -12 22 -48 25
-56 5z"/>
<path d="M2403 1678 c-72 -10 -73 -10 -67 -36 4 -15 7 -28 8 -29 1 -1 47 3
104 10 l102 11 0 28 c0 26 -3 28 -37 27 -21 -1 -71 -6 -110 -11z"/>
<path d="M423 1572 c-27 -4 -29 -19 -7 -50 14 -20 14 -22 0 -22 -11 0 -16 -10
-16 -31 l0 -32 61 7 c34 3 84 6 110 6 48 0 49 1 49 31 l0 32 -57 -6 c-71 -7
-94 1 -107 39 -8 22 -16 28 -33 26z"/>
<path d="M2351 1529 c-19 -55 -14 -107 14 -134 43 -44 78 -26 101 51 9 32 21
54 27 51 16 -5 21 -61 8 -85 -8 -16 -6 -21 14 -30 26 -12 28 -10 40 58 7 37
-8 89 -28 102 -20 13 -64 9 -76 -6 -6 -8 -17 -33 -24 -57 -8 -26 -19 -44 -27
-44 -21 0 -24 37 -6 78 13 31 13 36 -1 41 -25 10 -31 7 -42 -25z"/>
<path d="M530 1363 c-56 -20 -52 -15 -41 -46 10 -26 11 -26 51 -12 40 14 40
14 55 -15 28 -54 15 -99 -35 -125 -43 -22 -68 -18 -102 15 -27 27 -30 36 -26
74 4 35 2 45 -15 55 -28 18 -41 0 -41 -57 0 -58 26 -108 74 -139 60 -41 153
-21 192 41 28 45 21 131 -15 185 -30 45 -33 46 -97 24z"/>
<path d="M2315 1287 c-8 -13 -18 -37 -21 -55 -6 -28 -4 -32 15 -32 14 0 25 9
31 25 11 28 25 30 82 13 35 -10 38 -14 33 -38 -5 -22 -2 -28 15 -33 15 -4 22
1 26 19 5 21 11 24 34 19 23 -5 28 -2 34 17 9 34 8 35 -18 42 -15 4 -23 13
-22 23 0 12 -7 19 -21 21 -15 2 -23 -2 -23 -11 0 -13 -6 -13 -47 -1 -68 20
-100 18 -118 -9z"/>
<path d="M2258 1130 c-29 -22 -58 -78 -58 -109 0 -16 6 -21 25 -21 20 0 25 5
25 25 0 29 40 75 65 75 21 0 19 -7 -25 -80 -37 -59 -39 -66 -23 -77 23 -18 84
-16 111 3 29 20 52 66 52 105 0 48 -56 99 -108 99 -24 0 -49 -8 -64 -20z m118
-114 c-6 -23 -49 -47 -62 -34 -2 3 8 27 23 53 24 45 27 47 36 27 5 -11 7 -32
3 -46z"/>
<path d="M758 999 c-33 -19 -15 -69 24 -69 15 0 38 27 38 44 0 7 -31 36 -38
36 -4 0 -15 -5 -24 -11z"/>
<path d="M1988 832 c-42 -31 -77 -59 -77 -62 0 -3 6 -14 14 -24 14 -18 16 -18
59 18 24 20 47 36 49 36 3 0 1 -17 -4 -37 -12 -52 -11 -120 2 -144 15 -30 56
-42 95 -29 67 22 131 134 70 123 -13 -3 -29 -16 -35 -29 -6 -13 -23 -30 -37
-36 -23 -11 -28 -10 -40 7 -18 24 -17 32 1 129 11 59 12 82 4 92 -6 8 -14 14
-18 13 -3 0 -41 -26 -83 -57z"/>
<path d="M933 793 c-34 -7 -81 -59 -89 -98 -15 -84 15 -129 133 -195 l52 -30
65 115 c36 63 66 118 66 123 0 14 -159 92 -183 91 -12 -1 -32 -4 -44 -6z m117
-73 l39 -20 -41 -72 c-23 -40 -43 -75 -45 -77 -6 -8 -75 34 -89 54 -37 51 4
135 66 135 17 0 48 -9 70 -20z"/>
<path d="M1775 715 c-93 -32 -135 -75 -135 -140 0 -78 38 -126 111 -140 44 -8
203 40 196 59 -3 7 -22 66 -43 130 -20 64 -42 116 -48 115 -6 0 -42 -11 -81
-24z m74 -124 c12 -40 19 -77 14 -81 -17 -16 -85 -29 -108 -20 -44 17 -67 76
-48 125 7 20 104 68 114 57 4 -4 16 -40 28 -81z"/>
<path d="M1545 698 c-3 -7 -27 -87 -55 -176 -28 -90 -54 -171 -57 -179 -4 -11
1 -14 23 -11 28 3 30 8 86 188 32 102 58 186 58 188 1 9 -52 -1 -55 -10z"/>
<path d="M1225 655 c-40 -39 -31 -96 18 -122 16 -8 13 -13 -23 -42 -59 -47
-54 -65 25 -79 36 -7 78 -15 94 -18 24 -5 29 -3 33 19 5 25 2 26 -49 33 -29 3
-55 9 -57 13 -3 4 11 17 30 30 45 31 47 66 4 75 -35 6 -48 29 -30 51 17 21 59
19 97 -4 l31 -20 16 24 c15 23 14 24 -27 44 -62 30 -131 28 -162 -4z"/>
</g>
</svg>
